# xmcd CD database file
#
# Track frame offsets:
#	150
#	10070
#	22497
#	32027
#	45179
#	55378
#	69701
#	80457
#	90990
#	102470
#
# Disc length: 1513 seconds
#
# Revision: 0
# Processed by: cddbd v1.5.2PL0 Copyright (c) Steve Scherf et al.
# Submitted via: CDex 1.51
#
DISCID=7a05e70a
DTITLE=JB Nelson and the Chainsaws - The Black Horse Saloon
DYEAR=2008
DGENRE=Country
TTITLE0=Watch Out for the Devil
TTITLE1=I'm Really Missing You
TTITLE2=Murder Hole on Brandy Lane
TTITLE3=You and the Devil and Me
TTITLE4=Black Horse Saloon
TTITLE5=Ghost of Fairy Rock
TTITLE6=Fed Up and Going
TTITLE7=The Stranger
TTITLE8=Afternoon Blues
TTITLE9=Love Song
EXTD=YEAR: 2008
EXTT0=
EXTT1=
EXTT2=
EXTT3=
EXTT4=
EXTT5=
EXTT6=
EXTT7=
EXTT8=
EXTT9=
PLAYORDER=
